<?xml version="1.0" encoding="UTF-8"?>
<svg width="299.96mm" height="120.71mm" version="1.1" viewBox="0 0 299.96 120.71" xmlns="http://www.w3.org/2000/svg" xmlns:cc="http://creativecommons.org/ns#" xmlns:dc="http://purl.org/dc/elements/1.1/" xmlns:rdf="http://www.w3.org/1999/02/22-rdf-syntax-ns#">
<defs>
<marker id="a" overflow="visible" orient="auto">
<path transform="scale(-.6)" d="m8.7186 4.0337-10.926-4.0177 10.926-4.0177c-1.7455 2.3721-1.7354 5.6175-6e-7 8.0354z" fill="#142c78" fill-rule="evenodd" stroke="#142c78" stroke-linejoin="round" stroke-width=".625"/>
</marker>
<marker id="b" overflow="visible" orient="auto">
<path transform="scale(-.6)" d="m8.7186 4.0337-10.926-4.0177 10.926-4.0177c-1.7455 2.3721-1.7354 5.6175-6e-7 8.0354z" fill="#142c78" fill-rule="evenodd" stroke="#142c78" stroke-linejoin="round" stroke-width=".625"/>
</marker>
<marker id="c" overflow="visible" orient="auto">
<path transform="scale(-.6)" d="m8.7186 4.0337-10.926-4.0177 10.926-4.0177c-1.7455 2.3721-1.7354 5.6175-6e-7 8.0354z" fill="#142c78" fill-rule="evenodd" stroke="#142c78" stroke-linejoin="round" stroke-width=".625"/>
</marker>
<marker id="d" overflow="visible" orient="auto">
<path transform="scale(-.6)" d="m8.7186 4.0337-10.926-4.0177 10.926-4.0177c-1.7455 2.3721-1.7354 5.6175-6e-7 8.0354z" fill="#f00000" fill-rule="evenodd" stroke="#f00000" stroke-linejoin="round" stroke-width=".625"/>
</marker>
<marker id="e" overflow="visible" orient="auto">
<path transform="scale(-.6)" d="m8.7186 4.0337-10.926-4.0177 10.926-4.0177c-1.7455 2.3721-1.7354 5.6175-6e-7 8.0354z" fill="#2b7914" fill-rule="evenodd" stroke="#2b7914" stroke-linejoin="round" stroke-width=".625"/>
</marker>
</defs>
<metadata>
<rdf:RDF>
<cc:Work rdf:about="">
<dc:format>image/svg+xml</dc:format>
<dc:type rdf:resource="http://purl.org/dc/dcmitype/StillImage"/>
<dc:title/>
</cc:Work>
</rdf:RDF>
</metadata>
<g transform="translate(-12.171 18.958)">
<path d="m12.171-18.958h299.96v120.71h-299.96z" fill="#fff"/>
<g transform="matrix(4 0 0 1.0159 -36.512 109.89)" stroke-width="1.9843">
<path transform="rotate(-90)" d="m72.945 55.627a30.389 30.389 0 0 1-30.389 30.389 30.389 30.389 0 0 1-30.389-30.389 30.389 30.389 0 0 1 30.389-30.389 30.389 30.389 0 0 1 30.389 30.389z" fill="#ececec"/>
<path transform="rotate(-90)" d="m52.346 55.627a9.7897 9.7897 0 0 1-9.7897 9.7897 9.7897 9.7897 0 0 1-9.7897-9.7897 9.7897 9.7897 0 0 1 9.7897-9.7897 9.7897 9.7897 0 0 1 9.7897 9.7897z" fill="#f8f8f8" stroke="#b4b4b4" stroke-linecap="round" stroke-width=".26193"/>
<path transform="rotate(-90)" d="m47.544 55.627a4.9873 4.9873 0 0 1-4.9873 4.9873 4.9873 4.9873 0 0 1-4.9873-4.9873 4.9873 4.9873 0 0 1 4.9873-4.9873 4.9873 4.9873 0 0 1 4.9873 4.9873z" fill="#fff" stroke="#b4b4b4" stroke-linecap="round" stroke-width=".26193"/>
<path transform="rotate(-90)" d="m43.78 48.285a1.2237 1.2237 0 0 1-1.2237 1.2237 1.2237 1.2237 0 0 1-1.2237-1.2237 1.2237 1.2237 0 0 1 1.2237-1.2237 1.2237 1.2237 0 0 1 1.2237 1.2237z" fill="#fff" stroke="#b4b4b4" stroke-linecap="round" stroke-width=".26193"/>
<path transform="rotate(-90)" d="m43.78 62.969a1.2237 1.2237 0 0 1-1.2237 1.2237 1.2237 1.2237 0 0 1-1.2237-1.2237 1.2237 1.2237 0 0 1 1.2237-1.2237 1.2237 1.2237 0 0 1 1.2237 1.2237z" fill="#fff" stroke="#b4b4b4" stroke-linecap="round" stroke-width=".26193"/>
<path transform="rotate(210)" d="m-25.673 57.326a1.2237 1.2237 0 0 1-1.2237 1.2237 1.2237 1.2237 0 0 1-1.2237-1.2237 1.2237 1.2237 0 0 1 1.2237-1.2237 1.2237 1.2237 0 0 1 1.2237 1.2237z" fill="#fff" stroke="#b4b4b4" stroke-linecap="round" stroke-width=".26193"/>
<path transform="rotate(210)" d="m-25.673 72.011a1.2237 1.2237 0 0 1-1.2237 1.2237 1.2237 1.2237 0 0 1-1.2237-1.2237 1.2237 1.2237 0 0 1 1.2237-1.2237 1.2237 1.2237 0 0 1 1.2237 1.2237z" fill="#fff" stroke="#b4b4b4" stroke-linecap="round" stroke-width=".26193"/>
<path transform="rotate(150)" d="m-68.229 1.699a1.2237 1.2237 0 0 1-1.2237 1.2237 1.2237 1.2237 0 0 1-1.2237-1.2237 1.2237 1.2237 0 0 1 1.2237-1.2237 1.2237 1.2237 0 0 1 1.2237 1.2237z" fill="#fff" stroke="#b4b4b4" stroke-linecap="round" stroke-width=".26193"/>
<path transform="rotate(150)" d="m-68.229 16.384a1.2237 1.2237 0 0 1-1.2237 1.2237 1.2237 1.2237 0 0 1-1.2237-1.2237 1.2237 1.2237 0 0 1 1.2237-1.2237 1.2237 1.2237 0 0 1 1.2237 1.2237z" fill="#fff" stroke="#b4b4b4" stroke-linecap="round" stroke-width=".26193"/>
<path transform="rotate(-90)" d="m72.933 55.602c0 16.804-13.623 30.427-30.427 30.427-16.804 0-30.427-13.623-30.427-30.427 0-16.804 13.623-30.427 30.427-30.427 16.804 0 30.427 13.623 30.427 30.427v0z" fill="none" stroke="#a0a0a0" stroke-linecap="round" stroke-width=".26251"/>
<path transform="rotate(-90)" d="m71.489 55.627a28.972 28.972 0 0 1-28.972 28.972 28.972 28.972 0 0 1-28.972-28.972 28.972 28.972 0 0 1 28.972-28.972 28.972 28.972 0 0 1 28.972 28.972z" fill="none" stroke="#a0a0a0" stroke-linecap="round" stroke-width=".26251"/>
<path transform="rotate(-90)" d="m70.167 55.627a27.649 27.649 0 0 1-27.649 27.649 27.649 27.649 0 0 1-27.649-27.649 27.649 27.649 0 0 1 27.649-27.649 27.649 27.649 0 0 1 27.649 27.649z" fill="none" stroke="#a0a0a0" stroke-linecap="round" stroke-width=".26251"/>
<path transform="rotate(-90)" d="m68.844 55.627a26.326 26.326 0 0 1-26.326 26.326 26.326 26.326 0 0 1-26.326-26.326 26.326 26.326 0 0 1 26.326-26.326 26.326 26.326 0 0 1 26.326 26.326z" fill="none" stroke="#a0a0a0" stroke-linecap="round" stroke-width=".26251"/>
<path transform="rotate(-90)" d="m67.521 55.627a25.003 25.003 0 0 1-25.003 25.003 25.003 25.003 0 0 1-25.003-25.003 25.003 25.003 0 0 1 25.003-25.003 25.003 25.003 0 0 1 25.003 25.003z" fill="none" stroke="#a0a0a0" stroke-linecap="round" stroke-width=".26251"/>
<path transform="rotate(-90)" d="m66.198 55.627a23.68 23.68 0 0 1-23.68 23.68 23.68 23.68 0 0 1-23.68-23.68 23.68 23.68 0 0 1 23.68-23.68 23.68 23.68 0 0 1 23.68 23.68z" fill="none" stroke="#a0a0a0" stroke-linecap="round" stroke-width=".26251"/>
<path transform="rotate(-90)" d="m64.875 55.627a22.357 22.357 0 0 1-22.357 22.357 22.357 22.357 0 0 1-22.357-22.357 22.357 22.357 0 0 1 22.357-22.357 22.357 22.357 0 0 1 22.357 22.357z" fill="none" stroke="#a0a0a0" stroke-linecap="round" stroke-width=".26251"/>
<path transform="rotate(-90)" d="m63.552 55.627a21.034 21.034 0 0 1-21.034 21.034 21.034 21.034 0 0 1-21.034-21.034 21.034 21.034 0 0 1 21.034-21.034 21.034 21.034 0 0 1 21.034 21.034z" fill="none" stroke="#a0a0a0" stroke-linecap="round" stroke-width=".26251"/>
<path transform="rotate(-90)" d="m62.362 55.627a19.844 19.844 0 0 1-19.844 19.844 19.844 19.844 0 0 1-19.844-19.844 19.844 19.844 0 0 1 19.844-19.844 19.844 19.844 0 0 1 19.844 19.844z" fill="none" stroke="#a0a0a0" stroke-linecap="round" stroke-width=".26251"/>
<path transform="rotate(-90)" d="m61.039 55.627a18.521 18.521 0 0 1-18.521 18.521 18.521 18.521 0 0 1-18.521-18.521 18.521 18.521 0 0 1 18.521-18.521 18.521 18.521 0 0 1 18.521 18.521z" fill="none" stroke="#a0a0a0" stroke-linecap="round" stroke-width=".26251"/>
<path transform="rotate(-90)" d="m59.716 55.627a17.198 17.198 0 0 1-17.198 17.198 17.198 17.198 0 0 1-17.198-17.198 17.198 17.198 0 0 1 17.198-17.198 17.198 17.198 0 0 1 17.198 17.198z" fill="none" stroke="#a0a0a0" stroke-linecap="round" stroke-width=".26251"/>
<path transform="rotate(-90)" d="m58.393 55.627a15.875 15.875 0 0 1-15.875 15.875 15.875 15.875 0 0 1-15.875-15.875 15.875 15.875 0 0 1 15.875-15.875 15.875 15.875 0 0 1 15.875 15.875z" fill="none" stroke="#a0a0a0" stroke-linecap="round" stroke-width=".26251"/>
<path transform="rotate(-90)" d="m57.07 55.627a14.552 14.552 0 0 1-14.552 14.552 14.552 14.552 0 0 1-14.552-14.552 14.552 14.552 0 0 1 14.552-14.552 14.552 14.552 0 0 1 14.552 14.552z" fill="none" stroke="#a0a0a0" stroke-linecap="round" stroke-width=".26251"/>
<path transform="rotate(-90)" d="m55.747 55.627a13.229 13.229 0 0 1-13.229 13.229 13.229 13.229 0 0 1-13.229-13.229 13.229 13.229 0 0 1 13.229-13.229 13.229 13.229 0 0 1 13.229 13.229z" fill="none" stroke="#a0a0a0" stroke-linecap="round" stroke-width=".26251"/>
<path transform="rotate(-90)" d="m54.424 55.627a11.906 11.906 0 0 1-11.906 11.906 11.906 11.906 0 0 1-11.906-11.906 11.906 11.906 0 0 1 11.906-11.906 11.906 11.906 0 0 1 11.906 11.906z" fill="none" stroke="#a0a0a0" stroke-linecap="round" stroke-width=".26251"/>
<path transform="rotate(-90)" d="m53.101 55.627a10.583 10.583 0 0 1-10.583 10.583 10.583 10.583 0 0 1-10.583-10.583 10.583 10.583 0 0 1 10.583-10.583 10.583 10.583 0 0 1 10.583 10.583z" fill="none" stroke="#a0a0a0" stroke-linecap="round" stroke-width=".26251"/>
<g transform="rotate(-90 141.82 15.422)" stroke-width="1.9843">
<path d="m199.76-95.774c-13.809-1.09e-4 -25.003 11.194-25.003 25.003-1.1e-4 13.809 11.194 25.003 25.003 25.003 13.809 1.09e-4 25.003-11.194 25.003-25.003 1.1e-4 -13.809-11.194-25.003-25.003-25.003zm0 1.3229c0.78955 8e-6 1.5786 0.03951 2.3642 0.11834 0.78555 0.07891 1.5667 0.19705 2.3404 0.35398 0.77375 0.15681 1.5392 0.35222 2.2934 0.58549 0.75428 0.23337 1.4964 0.50432 2.2236 0.81184 0.72709 0.3074 1.4384 0.65096 2.1311 1.0294 0.69286 0.37848 1.3664 0.79137 2.018 1.2371 0.65153 0.44579 1.2804 0.92387 1.8841 1.4325 0.60393 0.50856 1.1821 1.047 1.7322 1.6133 0.55005 0.56648 1.0714 1.1601 1.5622 1.7787 0.49069 0.6183 0.95015 1.2608 1.3767 1.9249 0.42656 0.66448 0.81962 1.3499 1.1777 2.0536 0.35811 0.70363 0.6808 1.4247 0.96687 2.1606 0.28619 0.7357 0.5354 1.4853 0.74672 2.2459 0.21118 0.76086 0.38417 1.5318 0.51832 2.3099 0.13419 0.778 0.2294 1.5622 0.28525 2.3497 0.0396 0.5574 0.0594 1.116 0.0594 1.6748-1e-5 0.78955-0.0395 1.5786-0.11834 2.3642-0.0789 0.78556-0.19705 1.5667-0.35399 2.3404-0.15681 0.77375-0.35222 1.5392-0.58549 2.2934-0.23337 0.75428-0.50432 1.4964-0.81184 2.2236-0.30739 0.72709-0.65095 1.4384-1.0294 2.1311-0.37848 0.69286-0.79137 1.3664-1.2371 2.018-0.44579 0.65153-0.92388 1.2804-1.4325 1.8841-0.50856 0.60393-1.047 1.1821-1.6133 1.7322-0.56649 0.55006-1.1601 1.0714-1.7787 1.5622-0.6183 0.49068-1.2608 0.95014-1.9249 1.3767-0.66448 0.42656-1.3499 0.81962-2.0536 1.1777-0.70346 0.35809-1.4244 0.68078-2.1601 0.96687-0.73587 0.2862-1.4856 0.53542-2.2464 0.74672-0.76069 0.21116-1.5314 0.38415-2.3094 0.51832-0.77817 0.13421-1.5626 0.22942-2.3502 0.28525-0.5574 0.03957-1.116 0.05939-1.6748 0.05943-0.78955-8e-6 -1.5786-0.0395-2.3642-0.11834-0.78555-0.0789-1.5667-0.19705-2.3404-0.35398-0.77375-0.15681-1.5392-0.35222-2.2934-0.58549-0.75428-0.23337-1.4964-0.50432-2.2236-0.81184-0.72709-0.3074-1.4384-0.65096-2.1311-1.0294-0.69286-0.37848-1.3664-0.79137-2.018-1.2371-0.65152-0.44578-1.2804-0.92387-1.8841-1.4325-0.60394-0.50857-1.1821-1.047-1.7322-1.6133-0.55005-0.56648-1.0714-1.1601-1.5622-1.7787-0.49069-0.6183-0.95015-1.2608-1.3767-1.9249-0.42656-0.66448-0.81962-1.3499-1.1777-2.0536-0.35809-0.70346-0.68078-1.4244-0.96687-2.1601-0.2862-0.73587-0.53542-1.4856-0.74672-2.2464-0.21116-0.76069-0.38415-1.5315-0.51832-2.3094-0.13419-0.778-0.2294-1.5622-0.28525-2.3497-0.0396-0.55757-0.0594-1.1164-0.0594-1.6753 1e-5 -0.78955 0.0395-1.5786 0.11834-2.3642 0.0789-0.78556 0.19705-1.5667 0.35399-2.3404 0.15681-0.77375 0.35222-1.5392 0.58549-2.2934 0.23339-0.75411 0.50434-1.4961 0.81184-2.2231 0.30738-0.72727 0.65094-1.4387 1.0294-2.1317 0.37848-0.69286 0.79137-1.3664 1.2371-2.018 0.44579-0.65153 0.92388-1.2804 1.4325-1.8841 0.50856-0.60393 1.047-1.1821 1.6133-1.7322 0.56649-0.55006 1.1601-1.0714 1.7787-1.5622 0.6183-0.49068 1.2608-0.95014 1.9249-1.3767 0.66448-0.42656 1.3499-0.81962 2.0536-1.1777 0.70346-0.35809 1.4244-0.68078 2.1601-0.96686 0.73587-0.2862 1.4856-0.53542 2.2464-0.74673 0.76069-0.21116 1.5314-0.38415 2.3094-0.51831 0.77817-0.13421 1.5626-0.22942 2.3502-0.28526 0.5574-0.03957 1.116-0.05939 1.6748-0.05943z" fill="#6584e4" stroke="#142c79" stroke-linecap="round" stroke-width=".26251"/>
</g>
</g>
<g transform="matrix(4 0 0 1.0159 -36.512 84.6)" stroke-width="1.9843">
<path transform="rotate(-90)" d="m72.945 55.627a30.389 30.389 0 0 1-30.389 30.389 30.389 30.389 0 0 1-30.389-30.389 30.389 30.389 0 0 1 30.389-30.389 30.389 30.389 0 0 1 30.389 30.389z" fill="#ececec"/>
<path transform="rotate(-90)" d="m52.346 55.627a9.7897 9.7897 0 0 1-9.7897 9.7897 9.7897 9.7897 0 0 1-9.7897-9.7897 9.7897 9.7897 0 0 1 9.7897-9.7897 9.7897 9.7897 0 0 1 9.7897 9.7897z" fill="#f8f8f8" stroke="#b4b4b4" stroke-linecap="round" stroke-width=".26193"/>
<path transform="rotate(-90)" d="m47.544 55.627a4.9873 4.9873 0 0 1-4.9873 4.9873 4.9873 4.9873 0 0 1-4.9873-4.9873 4.9873 4.9873 0 0 1 4.9873-4.9873 4.9873 4.9873 0 0 1 4.9873 4.9873z" fill="#fff" stroke="#b4b4b4" stroke-linecap="round" stroke-width=".26193"/>
<path transform="rotate(-90)" d="m43.78 48.285a1.2237 1.2237 0 0 1-1.2237 1.2237 1.2237 1.2237 0 0 1-1.2237-1.2237 1.2237 1.2237 0 0 1 1.2237-1.2237 1.2237 1.2237 0 0 1 1.2237 1.2237z" fill="#fff" stroke="#b4b4b4" stroke-linecap="round" stroke-width=".26193"/>
<path transform="rotate(-90)" d="m43.78 62.969a1.2237 1.2237 0 0 1-1.2237 1.2237 1.2237 1.2237 0 0 1-1.2237-1.2237 1.2237 1.2237 0 0 1 1.2237-1.2237 1.2237 1.2237 0 0 1 1.2237 1.2237z" fill="#fff" stroke="#b4b4b4" stroke-linecap="round" stroke-width=".26193"/>
<path transform="rotate(210)" d="m-25.673 57.326a1.2237 1.2237 0 0 1-1.2237 1.2237 1.2237 1.2237 0 0 1-1.2237-1.2237 1.2237 1.2237 0 0 1 1.2237-1.2237 1.2237 1.2237 0 0 1 1.2237 1.2237z" fill="#fff" stroke="#b4b4b4" stroke-linecap="round" stroke-width=".26193"/>
<path transform="rotate(210)" d="m-25.673 72.011a1.2237 1.2237 0 0 1-1.2237 1.2237 1.2237 1.2237 0 0 1-1.2237-1.2237 1.2237 1.2237 0 0 1 1.2237-1.2237 1.2237 1.2237 0 0 1 1.2237 1.2237z" fill="#fff" stroke="#b4b4b4" stroke-linecap="round" stroke-width=".26193"/>
<path transform="rotate(150)" d="m-68.229 1.699a1.2237 1.2237 0 0 1-1.2237 1.2237 1.2237 1.2237 0 0 1-1.2237-1.2237 1.2237 1.2237 0 0 1 1.2237-1.2237 1.2237 1.2237 0 0 1 1.2237 1.2237z" fill="#fff" stroke="#b4b4b4" stroke-linecap="round" stroke-width=".26193"/>
<path transform="rotate(150)" d="m-68.229 16.384a1.2237 1.2237 0 0 1-1.2237 1.2237 1.2237 1.2237 0 0 1-1.2237-1.2237 1.2237 1.2237 0 0 1 1.2237-1.2237 1.2237 1.2237 0 0 1 1.2237 1.2237z" fill="#fff" stroke="#b4b4b4" stroke-linecap="round" stroke-width=".26193"/>
<path transform="rotate(-90)" d="m72.933 55.602c0 16.804-13.623 30.427-30.427 30.427-16.804 0-30.427-13.623-30.427-30.427 0-16.804 13.623-30.427 30.427-30.427 16.804 0 30.427 13.623 30.427 30.427v0z" fill="none" stroke="#a0a0a0" stroke-linecap="round" stroke-width=".26251"/>
<path transform="rotate(-90)" d="m71.489 55.627a28.972 28.972 0 0 1-28.972 28.972 28.972 28.972 0 0 1-28.972-28.972 28.972 28.972 0 0 1 28.972-28.972 28.972 28.972 0 0 1 28.972 28.972z" fill="none" stroke="#a0a0a0" stroke-linecap="round" stroke-width=".26251"/>
<path transform="rotate(-90)" d="m70.167 55.627a27.649 27.649 0 0 1-27.649 27.649 27.649 27.649 0 0 1-27.649-27.649 27.649 27.649 0 0 1 27.649-27.649 27.649 27.649 0 0 1 27.649 27.649z" fill="none" stroke="#a0a0a0" stroke-linecap="round" stroke-width=".26251"/>
<path transform="rotate(-90)" d="m68.844 55.627a26.326 26.326 0 0 1-26.326 26.326 26.326 26.326 0 0 1-26.326-26.326 26.326 26.326 0 0 1 26.326-26.326 26.326 26.326 0 0 1 26.326 26.326z" fill="none" stroke="#a0a0a0" stroke-linecap="round" stroke-width=".26251"/>
<path transform="rotate(-90)" d="m67.521 55.627a25.003 25.003 0 0 1-25.003 25.003 25.003 25.003 0 0 1-25.003-25.003 25.003 25.003 0 0 1 25.003-25.003 25.003 25.003 0 0 1 25.003 25.003z" fill="none" stroke="#a0a0a0" stroke-linecap="round" stroke-width=".26251"/>
<path transform="rotate(-90)" d="m66.198 55.627a23.68 23.68 0 0 1-23.68 23.68 23.68 23.68 0 0 1-23.68-23.68 23.68 23.68 0 0 1 23.68-23.68 23.68 23.68 0 0 1 23.68 23.68z" fill="none" stroke="#a0a0a0" stroke-linecap="round" stroke-width=".26251"/>
<path transform="rotate(-90)" d="m64.875 55.627a22.357 22.357 0 0 1-22.357 22.357 22.357 22.357 0 0 1-22.357-22.357 22.357 22.357 0 0 1 22.357-22.357 22.357 22.357 0 0 1 22.357 22.357z" fill="none" stroke="#a0a0a0" stroke-linecap="round" stroke-width=".26251"/>
<path transform="rotate(-90)" d="m63.552 55.627a21.034 21.034 0 0 1-21.034 21.034 21.034 21.034 0 0 1-21.034-21.034 21.034 21.034 0 0 1 21.034-21.034 21.034 21.034 0 0 1 21.034 21.034z" fill="none" stroke="#a0a0a0" stroke-linecap="round" stroke-width=".26251"/>
<path transform="rotate(-90)" d="m62.362 55.627a19.844 19.844 0 0 1-19.844 19.844 19.844 19.844 0 0 1-19.844-19.844 19.844 19.844 0 0 1 19.844-19.844 19.844 19.844 0 0 1 19.844 19.844z" fill="none" stroke="#a0a0a0" stroke-linecap="round" stroke-width=".26251"/>
<path transform="rotate(-90)" d="m61.039 55.627a18.521 18.521 0 0 1-18.521 18.521 18.521 18.521 0 0 1-18.521-18.521 18.521 18.521 0 0 1 18.521-18.521 18.521 18.521 0 0 1 18.521 18.521z" fill="none" stroke="#a0a0a0" stroke-linecap="round" stroke-width=".26251"/>
<path transform="rotate(-90)" d="m59.716 55.627a17.198 17.198 0 0 1-17.198 17.198 17.198 17.198 0 0 1-17.198-17.198 17.198 17.198 0 0 1 17.198-17.198 17.198 17.198 0 0 1 17.198 17.198z" fill="none" stroke="#a0a0a0" stroke-linecap="round" stroke-width=".26251"/>
<path transform="rotate(-90)" d="m58.393 55.627a15.875 15.875 0 0 1-15.875 15.875 15.875 15.875 0 0 1-15.875-15.875 15.875 15.875 0 0 1 15.875-15.875 15.875 15.875 0 0 1 15.875 15.875z" fill="none" stroke="#a0a0a0" stroke-linecap="round" stroke-width=".26251"/>
<path transform="rotate(-90)" d="m57.07 55.627a14.552 14.552 0 0 1-14.552 14.552 14.552 14.552 0 0 1-14.552-14.552 14.552 14.552 0 0 1 14.552-14.552 14.552 14.552 0 0 1 14.552 14.552z" fill="none" stroke="#a0a0a0" stroke-linecap="round" stroke-width=".26251"/>
<path transform="rotate(-90)" d="m55.747 55.627a13.229 13.229 0 0 1-13.229 13.229 13.229 13.229 0 0 1-13.229-13.229 13.229 13.229 0 0 1 13.229-13.229 13.229 13.229 0 0 1 13.229 13.229z" fill="none" stroke="#a0a0a0" stroke-linecap="round" stroke-width=".26251"/>
<path transform="rotate(-90)" d="m54.424 55.627a11.906 11.906 0 0 1-11.906 11.906 11.906 11.906 0 0 1-11.906-11.906 11.906 11.906 0 0 1 11.906-11.906 11.906 11.906 0 0 1 11.906 11.906z" fill="none" stroke="#a0a0a0" stroke-linecap="round" stroke-width=".26251"/>
<path transform="rotate(-90)" d="m53.101 55.627a10.583 10.583 0 0 1-10.583 10.583 10.583 10.583 0 0 1-10.583-10.583 10.583 10.583 0 0 1 10.583-10.583 10.583 10.583 0 0 1 10.583 10.583z" fill="none" stroke="#a0a0a0" stroke-linecap="round" stroke-width=".26251"/>
<g transform="rotate(-90 141.82 15.422)" stroke-width="1.9843">
<path d="m199.76-95.774c-13.809-1.09e-4 -25.003 11.194-25.003 25.003-1.1e-4 13.809 11.194 25.003 25.003 25.003 13.809 1.09e-4 25.003-11.194 25.003-25.003 1.1e-4 -13.809-11.194-25.003-25.003-25.003zm0 1.3229c0.78955 8e-6 1.5786 0.03951 2.3642 0.11834 0.78555 0.07891 1.5667 0.19705 2.3404 0.35398 0.77375 0.15681 1.5392 0.35222 2.2934 0.58549 0.75428 0.23337 1.4964 0.50432 2.2236 0.81184 0.72709 0.3074 1.4384 0.65096 2.1311 1.0294 0.69286 0.37848 1.3664 0.79137 2.018 1.2371 0.65153 0.44579 1.2804 0.92387 1.8841 1.4325 0.60393 0.50856 1.1821 1.047 1.7322 1.6133 0.55005 0.56648 1.0714 1.1601 1.5622 1.7787 0.49069 0.6183 0.95015 1.2608 1.3767 1.9249 0.42656 0.66448 0.81962 1.3499 1.1777 2.0536 0.35811 0.70363 0.6808 1.4247 0.96687 2.1606 0.28619 0.7357 0.5354 1.4853 0.74672 2.2459 0.21118 0.76086 0.38417 1.5318 0.51832 2.3099 0.13419 0.778 0.2294 1.5622 0.28525 2.3497 0.0396 0.5574 0.0594 1.116 0.0594 1.6748-1e-5 0.78955-0.0395 1.5786-0.11834 2.3642-0.0789 0.78556-0.19705 1.5667-0.35399 2.3404-0.15681 0.77375-0.35222 1.5392-0.58549 2.2934-0.23337 0.75428-0.50432 1.4964-0.81184 2.2236-0.30739 0.72709-0.65095 1.4384-1.0294 2.1311-0.37848 0.69286-0.79137 1.3664-1.2371 2.018-0.44579 0.65153-0.92388 1.2804-1.4325 1.8841-0.50856 0.60393-1.047 1.1821-1.6133 1.7322-0.56649 0.55006-1.1601 1.0714-1.7787 1.5622-0.6183 0.49068-1.2608 0.95014-1.9249 1.3767-0.66448 0.42656-1.3499 0.81962-2.0536 1.1777-0.70346 0.35809-1.4244 0.68078-2.1601 0.96687-0.73587 0.2862-1.4856 0.53542-2.2464 0.74672-0.76069 0.21116-1.5314 0.38415-2.3094 0.51832-0.77817 0.13421-1.5626 0.22942-2.3502 0.28525-0.5574 0.03957-1.116 0.05939-1.6748 0.05943-0.78955-8e-6 -1.5786-0.0395-2.3642-0.11834-0.78555-0.0789-1.5667-0.19705-2.3404-0.35398-0.77375-0.15681-1.5392-0.35222-2.2934-0.58549-0.75428-0.23337-1.4964-0.50432-2.2236-0.81184-0.72709-0.3074-1.4384-0.65096-2.1311-1.0294-0.69286-0.37848-1.3664-0.79137-2.018-1.2371-0.65152-0.44578-1.2804-0.92387-1.8841-1.4325-0.60394-0.50857-1.1821-1.047-1.7322-1.6133-0.55005-0.56648-1.0714-1.1601-1.5622-1.7787-0.49069-0.6183-0.95015-1.2608-1.3767-1.9249-0.42656-0.66448-0.81962-1.3499-1.1777-2.0536-0.35809-0.70346-0.68078-1.4244-0.96687-2.1601-0.2862-0.73587-0.53542-1.4856-0.74672-2.2464-0.21116-0.76069-0.38415-1.5315-0.51832-2.3094-0.13419-0.778-0.2294-1.5622-0.28525-2.3497-0.0396-0.55757-0.0594-1.1164-0.0594-1.6753 1e-5 -0.78955 0.0395-1.5786 0.11834-2.3642 0.0789-0.78556 0.19705-1.5667 0.35399-2.3404 0.15681-0.77375 0.35222-1.5392 0.58549-2.2934 0.23339-0.75411 0.50434-1.4961 0.81184-2.2231 0.30738-0.72727 0.65094-1.4387 1.0294-2.1317 0.37848-0.69286 0.79137-1.3664 1.2371-2.018 0.44579-0.65153 0.92388-1.2804 1.4325-1.8841 0.50856-0.60393 1.047-1.1821 1.6133-1.7322 0.56649-0.55006 1.1601-1.0714 1.7787-1.5622 0.6183-0.49068 1.2608-0.95014 1.9249-1.3767 0.66448-0.42656 1.3499-0.81962 2.0536-1.1777 0.70346-0.35809 1.4244-0.68078 2.1601-0.96686 0.73587-0.2862 1.4856-0.53542 2.2464-0.74673 0.76069-0.21116 1.5314-0.38415 2.3094-0.51831 0.77817-0.13421 1.5626-0.22942 2.3502-0.28526 0.5574-0.03957 1.116-0.05939 1.6748-0.05943z" fill="#6584e4" stroke="#142c79" stroke-linecap="round" stroke-width=".26251"/>
</g>
</g>
<g transform="matrix(4 0 0 1.0159 -36.512 59.309)" stroke-width="1.9843">
<path transform="rotate(-90)" d="m72.945 55.627a30.389 30.389 0 0 1-30.389 30.389 30.389 30.389 0 0 1-30.389-30.389 30.389 30.389 0 0 1 30.389-30.389 30.389 30.389 0 0 1 30.389 30.389z" fill="#ececec"/>
<path transform="rotate(-90)" d="m52.346 55.627a9.7897 9.7897 0 0 1-9.7897 9.7897 9.7897 9.7897 0 0 1-9.7897-9.7897 9.7897 9.7897 0 0 1 9.7897-9.7897 9.7897 9.7897 0 0 1 9.7897 9.7897z" fill="#f8f8f8" stroke="#b4b4b4" stroke-linecap="round" stroke-width=".26193"/>
<path transform="rotate(-90)" d="m47.544 55.627a4.9873 4.9873 0 0 1-4.9873 4.9873 4.9873 4.9873 0 0 1-4.9873-4.9873 4.9873 4.9873 0 0 1 4.9873-4.9873 4.9873 4.9873 0 0 1 4.9873 4.9873z" fill="#fff" stroke="#b4b4b4" stroke-linecap="round" stroke-width=".26193"/>
<path transform="rotate(-90)" d="m43.78 48.285a1.2237 1.2237 0 0 1-1.2237 1.2237 1.2237 1.2237 0 0 1-1.2237-1.2237 1.2237 1.2237 0 0 1 1.2237-1.2237 1.2237 1.2237 0 0 1 1.2237 1.2237z" fill="#fff" stroke="#b4b4b4" stroke-linecap="round" stroke-width=".26193"/>
<path transform="rotate(-90)" d="m43.78 62.969a1.2237 1.2237 0 0 1-1.2237 1.2237 1.2237 1.2237 0 0 1-1.2237-1.2237 1.2237 1.2237 0 0 1 1.2237-1.2237 1.2237 1.2237 0 0 1 1.2237 1.2237z" fill="#fff" stroke="#b4b4b4" stroke-linecap="round" stroke-width=".26193"/>
<path transform="rotate(210)" d="m-25.673 57.326a1.2237 1.2237 0 0 1-1.2237 1.2237 1.2237 1.2237 0 0 1-1.2237-1.2237 1.2237 1.2237 0 0 1 1.2237-1.2237 1.2237 1.2237 0 0 1 1.2237 1.2237z" fill="#fff" stroke="#b4b4b4" stroke-linecap="round" stroke-width=".26193"/>
<path transform="rotate(210)" d="m-25.673 72.011a1.2237 1.2237 0 0 1-1.2237 1.2237 1.2237 1.2237 0 0 1-1.2237-1.2237 1.2237 1.2237 0 0 1 1.2237-1.2237 1.2237 1.2237 0 0 1 1.2237 1.2237z" fill="#fff" stroke="#b4b4b4" stroke-linecap="round" stroke-width=".26193"/>
<path transform="rotate(150)" d="m-68.229 1.699a1.2237 1.2237 0 0 1-1.2237 1.2237 1.2237 1.2237 0 0 1-1.2237-1.2237 1.2237 1.2237 0 0 1 1.2237-1.2237 1.2237 1.2237 0 0 1 1.2237 1.2237z" fill="#fff" stroke="#b4b4b4" stroke-linecap="round" stroke-width=".26193"/>
<path transform="rotate(150)" d="m-68.229 16.384a1.2237 1.2237 0 0 1-1.2237 1.2237 1.2237 1.2237 0 0 1-1.2237-1.2237 1.2237 1.2237 0 0 1 1.2237-1.2237 1.2237 1.2237 0 0 1 1.2237 1.2237z" fill="#fff" stroke="#b4b4b4" stroke-linecap="round" stroke-width=".26193"/>
<path transform="rotate(-90)" d="m72.933 55.602c0 16.804-13.623 30.427-30.427 30.427-16.804 0-30.427-13.623-30.427-30.427 0-16.804 13.623-30.427 30.427-30.427 16.804 0 30.427 13.623 30.427 30.427v0z" fill="none" stroke="#a0a0a0" stroke-linecap="round" stroke-width=".26251"/>
<path transform="rotate(-90)" d="m71.489 55.627a28.972 28.972 0 0 1-28.972 28.972 28.972 28.972 0 0 1-28.972-28.972 28.972 28.972 0 0 1 28.972-28.972 28.972 28.972 0 0 1 28.972 28.972z" fill="none" stroke="#a0a0a0" stroke-linecap="round" stroke-width=".26251"/>
<path transform="rotate(-90)" d="m70.167 55.627a27.649 27.649 0 0 1-27.649 27.649 27.649 27.649 0 0 1-27.649-27.649 27.649 27.649 0 0 1 27.649-27.649 27.649 27.649 0 0 1 27.649 27.649z" fill="none" stroke="#a0a0a0" stroke-linecap="round" stroke-width=".26251"/>
<path transform="rotate(-90)" d="m68.844 55.627a26.326 26.326 0 0 1-26.326 26.326 26.326 26.326 0 0 1-26.326-26.326 26.326 26.326 0 0 1 26.326-26.326 26.326 26.326 0 0 1 26.326 26.326z" fill="none" stroke="#a0a0a0" stroke-linecap="round" stroke-width=".26251"/>
<path transform="rotate(-90)" d="m67.521 55.627a25.003 25.003 0 0 1-25.003 25.003 25.003 25.003 0 0 1-25.003-25.003 25.003 25.003 0 0 1 25.003-25.003 25.003 25.003 0 0 1 25.003 25.003z" fill="none" stroke="#a0a0a0" stroke-linecap="round" stroke-width=".26251"/>
<path transform="rotate(-90)" d="m66.198 55.627a23.68 23.68 0 0 1-23.68 23.68 23.68 23.68 0 0 1-23.68-23.68 23.68 23.68 0 0 1 23.68-23.68 23.68 23.68 0 0 1 23.68 23.68z" fill="none" stroke="#a0a0a0" stroke-linecap="round" stroke-width=".26251"/>
<path transform="rotate(-90)" d="m64.875 55.627a22.357 22.357 0 0 1-22.357 22.357 22.357 22.357 0 0 1-22.357-22.357 22.357 22.357 0 0 1 22.357-22.357 22.357 22.357 0 0 1 22.357 22.357z" fill="none" stroke="#a0a0a0" stroke-linecap="round" stroke-width=".26251"/>
<path transform="rotate(-90)" d="m63.552 55.627a21.034 21.034 0 0 1-21.034 21.034 21.034 21.034 0 0 1-21.034-21.034 21.034 21.034 0 0 1 21.034-21.034 21.034 21.034 0 0 1 21.034 21.034z" fill="none" stroke="#a0a0a0" stroke-linecap="round" stroke-width=".26251"/>
<path transform="rotate(-90)" d="m62.362 55.627a19.844 19.844 0 0 1-19.844 19.844 19.844 19.844 0 0 1-19.844-19.844 19.844 19.844 0 0 1 19.844-19.844 19.844 19.844 0 0 1 19.844 19.844z" fill="none" stroke="#a0a0a0" stroke-linecap="round" stroke-width=".26251"/>
<path transform="rotate(-90)" d="m61.039 55.627a18.521 18.521 0 0 1-18.521 18.521 18.521 18.521 0 0 1-18.521-18.521 18.521 18.521 0 0 1 18.521-18.521 18.521 18.521 0 0 1 18.521 18.521z" fill="none" stroke="#a0a0a0" stroke-linecap="round" stroke-width=".26251"/>
<path transform="rotate(-90)" d="m59.716 55.627a17.198 17.198 0 0 1-17.198 17.198 17.198 17.198 0 0 1-17.198-17.198 17.198 17.198 0 0 1 17.198-17.198 17.198 17.198 0 0 1 17.198 17.198z" fill="none" stroke="#a0a0a0" stroke-linecap="round" stroke-width=".26251"/>
<path transform="rotate(-90)" d="m58.393 55.627a15.875 15.875 0 0 1-15.875 15.875 15.875 15.875 0 0 1-15.875-15.875 15.875 15.875 0 0 1 15.875-15.875 15.875 15.875 0 0 1 15.875 15.875z" fill="none" stroke="#a0a0a0" stroke-linecap="round" stroke-width=".26251"/>
<path transform="rotate(-90)" d="m57.07 55.627a14.552 14.552 0 0 1-14.552 14.552 14.552 14.552 0 0 1-14.552-14.552 14.552 14.552 0 0 1 14.552-14.552 14.552 14.552 0 0 1 14.552 14.552z" fill="none" stroke="#a0a0a0" stroke-linecap="round" stroke-width=".26251"/>
<path transform="rotate(-90)" d="m55.747 55.627a13.229 13.229 0 0 1-13.229 13.229 13.229 13.229 0 0 1-13.229-13.229 13.229 13.229 0 0 1 13.229-13.229 13.229 13.229 0 0 1 13.229 13.229z" fill="none" stroke="#a0a0a0" stroke-linecap="round" stroke-width=".26251"/>
<path transform="rotate(-90)" d="m54.424 55.627a11.906 11.906 0 0 1-11.906 11.906 11.906 11.906 0 0 1-11.906-11.906 11.906 11.906 0 0 1 11.906-11.906 11.906 11.906 0 0 1 11.906 11.906z" fill="none" stroke="#a0a0a0" stroke-linecap="round" stroke-width=".26251"/>
<path transform="rotate(-90)" d="m53.101 55.627a10.583 10.583 0 0 1-10.583 10.583 10.583 10.583 0 0 1-10.583-10.583 10.583 10.583 0 0 1 10.583-10.583 10.583 10.583 0 0 1 10.583 10.583z" fill="none" stroke="#a0a0a0" stroke-linecap="round" stroke-width=".26251"/>
<g transform="rotate(-90 141.82 15.422)">
<path d="m199.76-95.774c-13.809-1.09e-4 -25.003 11.194-25.003 25.003-1.1e-4 13.809 11.194 25.003 25.003 25.003 13.809 1.09e-4 25.003-11.194 25.003-25.003 1.1e-4 -13.809-11.194-25.003-25.003-25.003zm0 1.3229c0.78955 8e-6 1.5786 0.03951 2.3642 0.11834 0.78555 0.07891 1.5667 0.19705 2.3404 0.35398 0.77375 0.15681 1.5392 0.35222 2.2934 0.58549 0.75428 0.23337 1.4964 0.50432 2.2236 0.81184 0.72709 0.3074 1.4384 0.65096 2.1311 1.0294 0.69286 0.37848 1.3664 0.79137 2.018 1.2371 0.65153 0.44579 1.2804 0.92387 1.8841 1.4325 0.60393 0.50856 1.1821 1.047 1.7322 1.6133 0.55005 0.56648 1.0714 1.1601 1.5622 1.7787 0.49069 0.6183 0.95015 1.2608 1.3767 1.9249 0.42656 0.66448 0.81962 1.3499 1.1777 2.0536 0.35811 0.70363 0.6808 1.4247 0.96687 2.1606 0.28619 0.7357 0.5354 1.4853 0.74672 2.2459 0.21118 0.76086 0.38417 1.5318 0.51832 2.3099 0.13419 0.778 0.2294 1.5622 0.28525 2.3497 0.0396 0.5574 0.0594 1.116 0.0594 1.6748-1e-5 0.78955-0.0395 1.5786-0.11834 2.3642-0.0789 0.78556-0.19705 1.5667-0.35399 2.3404-0.15681 0.77375-0.35222 1.5392-0.58549 2.2934-0.23337 0.75428-0.50432 1.4964-0.81184 2.2236-0.30739 0.72709-0.65095 1.4384-1.0294 2.1311-0.37848 0.69286-0.79137 1.3664-1.2371 2.018-0.44579 0.65153-0.92388 1.2804-1.4325 1.8841-0.50856 0.60393-1.047 1.1821-1.6133 1.7322-0.56649 0.55006-1.1601 1.0714-1.7787 1.5622-0.6183 0.49068-1.2608 0.95014-1.9249 1.3767-0.66448 0.42656-1.3499 0.81962-2.0536 1.1777-0.70346 0.35809-1.4244 0.68078-2.1601 0.96687-0.73587 0.2862-1.4856 0.53542-2.2464 0.74672-0.76069 0.21116-1.5314 0.38415-2.3094 0.51832-0.77817 0.13421-1.5626 0.22942-2.3502 0.28525-0.5574 0.03957-1.116 0.05939-1.6748 0.05943-0.78955-8e-6 -1.5786-0.0395-2.3642-0.11834-0.78555-0.0789-1.5667-0.19705-2.3404-0.35398-0.77375-0.15681-1.5392-0.35222-2.2934-0.58549-0.75428-0.23337-1.4964-0.50432-2.2236-0.81184-0.72709-0.3074-1.4384-0.65096-2.1311-1.0294-0.69286-0.37848-1.3664-0.79137-2.018-1.2371-0.65152-0.44578-1.2804-0.92387-1.8841-1.4325-0.60394-0.50857-1.1821-1.047-1.7322-1.6133-0.55005-0.56648-1.0714-1.1601-1.5622-1.7787-0.49069-0.6183-0.95015-1.2608-1.3767-1.9249-0.42656-0.66448-0.81962-1.3499-1.1777-2.0536-0.35809-0.70346-0.68078-1.4244-0.96687-2.1601-0.2862-0.73587-0.53542-1.4856-0.74672-2.2464-0.21116-0.76069-0.38415-1.5315-0.51832-2.3094-0.13419-0.778-0.2294-1.5622-0.28525-2.3497-0.0396-0.55757-0.0594-1.1164-0.0594-1.6753 1e-5 -0.78955 0.0395-1.5786 0.11834-2.3642 0.0789-0.78556 0.19705-1.5667 0.35399-2.3404 0.15681-0.77375 0.35222-1.5392 0.58549-2.2934 0.23339-0.75411 0.50434-1.4961 0.81184-2.2231 0.30738-0.72727 0.65094-1.4387 1.0294-2.1317 0.37848-0.69286 0.79137-1.3664 1.2371-2.018 0.44579-0.65153 0.92388-1.2804 1.4325-1.8841 0.50856-0.60393 1.047-1.1821 1.6133-1.7322 0.56649-0.55006 1.1601-1.0714 1.7787-1.5622 0.6183-0.49068 1.2608-0.95014 1.9249-1.3767 0.66448-0.42656 1.3499-0.81962 2.0536-1.1777 0.70346-0.35809 1.4244-0.68078 2.1601-0.96686 0.73587-0.2862 1.4856-0.53542 2.2464-0.74673 0.76069-0.21116 1.5314-0.38415 2.3094-0.51831 0.77817-0.13421 1.5626-0.22942 2.3502-0.28526 0.5574-0.03957 1.116-0.05939 1.6748-0.05943z" fill="#80e465" stroke="#142c79" stroke-linecap="round" stroke-width=".26251"/>
<path d="m199.76-94.451 5e-4 -1.3229c2.1848 1.03e-4 4.3604 0.28653 6.4614 0.84849l-0.3422 1.2771c-1.9896-0.53134-4.05-0.80261-6.1197-0.8027z" fill="#ec9292" stroke="#f00000" stroke-linejoin="bevel" stroke-width=".52501"/>
</g>
</g>
<g transform="matrix(4 0 0 4 -36.512 -305.26)" fill="#2b7914" stroke-width=".26458" aria-label="Track">
<path d="m16.506 80.042h-0.1757v-1.355h-0.47852v-0.15606h1.1327v0.15606h-0.47852z"/>
<path d="m17.702 78.888q0.07545 0 0.13539 0.0124l-0.02377 0.15916q-0.07028-0.0155-0.12402-0.0155-0.13746 0-0.23564 0.11162-0.09715 0.11162-0.09715 0.27802v0.60772h-0.17157v-1.1327h0.14159l0.01964 0.20981h0.0083q0.06304-0.11059 0.15193-0.17053 0.08888-0.05994 0.19534-0.05994z"/>
<path d="m18.746 80.042-0.03411-0.16123h-0.0083q-0.08475 0.10645-0.1695 0.14469-0.08372 0.03721-0.20981 0.03721-0.16846 0-0.26458-0.08682-0.09508-0.08682-0.09508-0.24701 0-0.34313 0.5488-0.35967l0.19224-0.0062v-0.07028q0-0.13332-0.05788-0.19637-0.05684-0.06408-0.18294-0.06408-0.14159 0-0.32039 0.08682l-0.05271-0.13126q0.08372-0.04547 0.18294-0.07131 0.10025-0.02584 0.2005-0.02584 0.20257 0 0.29972 0.08992 0.09819 0.08992 0.09819 0.28836v0.77308zm-0.38757-0.12092q0.1602 0 0.25115-0.08785 0.09198-0.08785 0.09198-0.24598v-0.10232l-0.17156 0.0072q-0.20464 0.0072-0.29559 0.06408-0.08992 0.05581-0.08992 0.17467 0 0.09302 0.05581 0.14159 0.05684 0.04858 0.15813 0.04858z"/>
<path d="m19.68 80.062q-0.24598 0-0.38137-0.1509-0.13436-0.15193-0.13436-0.42892 0-0.28422 0.13643-0.43925 0.13746-0.15503 0.39067-0.15503 0.08165 0 0.1633 0.01757 0.08165 0.01757 0.12816 0.04134l-0.05271 0.14573q-0.05684-0.02274-0.12402-0.03721-0.06718-0.0155-0.11886-0.0155-0.3452 0-0.3452 0.44028 0 0.20877 0.08372 0.32039 0.08475 0.11162 0.25011 0.11162 0.14159 0 0.29042-0.06098v0.15193q-0.11369 0.05891-0.28629 0.05891z"/>
<path d="m20.406 79.462q0.04444-0.06305 0.13539-0.16536l0.36587-0.38757h0.2036l-0.45889 0.48266 0.49093 0.65009h-0.20774l-0.39998-0.53537-0.12919 0.11162v0.42375h-0.1695v-1.6082h0.1695v0.85266q0 0.05684-0.0083 0.1757z"/>
</g>
<g transform="matrix(4 0 0 4 -36.512 -305.26)" fill="#f00000" stroke-width=".26458" aria-label="Sector">
<path d="m15.98 74.348q0 0.19947-0.14469 0.31109-0.14469 0.11162-0.39274 0.11162-0.26872 0-0.41341-0.06925v-0.1695q0.09302 0.03928 0.20257 0.06201 0.10955 0.02274 0.21704 0.02274 0.1757 0 0.26458-0.06615 0.08888-0.06718 0.08888-0.18604 0-0.07855-0.03204-0.12816-0.03101-0.05064-0.10542-0.09302-0.07338-0.04238-0.22428-0.09612-0.21084-0.07545-0.30179-0.1788-0.08992-0.10335-0.08992-0.26975 0-0.17467 0.13126-0.27802 0.13126-0.10335 0.34727-0.10335 0.22531 0 0.41444 0.08268l-0.05478 0.15296q-0.18707-0.07855-0.3638-0.07855-0.13953 0-0.21808 0.05994-0.07855 0.05994-0.07855 0.1664 0 0.07855 0.02894 0.12919 0.02894 0.04961 0.09715 0.09198 0.06925 0.04134 0.21084 0.09198 0.23771 0.08475 0.3266 0.1819 0.08992 0.09715 0.08992 0.25218z"/>
<path d="m16.742 74.771q-0.25115 0-0.39688-0.15296-0.14469-0.15296-0.14469-0.42478 0-0.27388 0.13436-0.43512 0.13539-0.16123 0.36277-0.16123 0.21291 0 0.33693 0.14056 0.12402 0.13953 0.12402 0.36897v0.10852h-0.78031q0.0052 0.19947 0.10025 0.30282 0.09612 0.10335 0.26975 0.10335 0.18294 0 0.36174-0.07648v0.15296q-0.09095 0.03927-0.1726 0.05581-0.08062 0.01757-0.19534 0.01757zm-0.04651-1.0304q-0.13642 0-0.21807 0.08888-0.08062 0.08888-0.09509 0.24598h0.59221q0-0.16226-0.07235-0.24805-0.07235-0.08682-0.20671-0.08682z"/>
<path d="m17.903 74.771q-0.24598 0-0.38137-0.1509-0.13436-0.15193-0.13436-0.42891 0-0.28422 0.13643-0.43925 0.13746-0.15503 0.39067-0.15503 0.08165 0 0.1633 0.01757 0.08165 0.01757 0.12816 0.04134l-0.05271 0.14573q-0.05684-0.02274-0.12402-0.03721-0.06718-0.0155-0.11886-0.0155-0.3452 0-0.3452 0.44028 0 0.20877 0.08372 0.32039 0.08475 0.11162 0.25011 0.11162 0.14159 0 0.29042-0.06098v0.15193q-0.11369 0.05891-0.28629 0.05891z"/>
<path d="m18.825 74.629q0.04547 0 0.08785-0.0062 0.04237-0.0072 0.06718-0.01447v0.13126q-0.02791 0.01344-0.08268 0.0217-0.05374 0.0093-0.09715 0.0093-0.32866 0-0.32866-0.34623v-0.67386h-0.16226v-0.08268l0.16226-0.07131 0.07235-0.24185h0.09922v0.26252h0.32866v0.13332h-0.32866v0.66663q0 0.10232 0.04858 0.1571 0.04858 0.05478 0.13332 0.05478z"/>
<path d="m20.185 74.183q0 0.27698-0.13953 0.43305-0.13953 0.15503-0.38551 0.15503-0.15193 0-0.26975-0.07131-0.11782-0.07131-0.1819-0.20464-0.06408-0.13332-0.06408-0.31212 0-0.27699 0.13849-0.43098 0.13849-0.15503 0.38447-0.15503 0.23771 0 0.37724 0.15813 0.14056 0.15813 0.14056 0.42788zm-0.863 0q0 0.21704 0.08682 0.33073t0.25528 0.11369q0.16847 0 0.25528-0.11266 0.08785-0.11369 0.08785-0.33176 0-0.21601-0.08785-0.32763-0.08682-0.11265-0.25735-0.11265-0.16846 0-0.25425 0.11059-0.08578 0.11059-0.08578 0.3297z"/>
<path d="m21.001 73.597q0.07545 0 0.13539 0.0124l-0.02377 0.15916q-0.07028-0.0155-0.12402-0.0155-0.13746 0-0.23564 0.11162-0.09715 0.11162-0.09715 0.27802v0.60771h-0.17157v-1.1327h0.14159l0.01964 0.20981h0.0083q0.06304-0.11059 0.15193-0.17053 0.08888-0.05994 0.19534-0.05994z"/>
</g>
<g transform="matrix(4 0 0 4 -36.512 -305.26)" fill="#142c79" stroke-width=".26458" aria-label="Cylinder">
<path d="m13.925 83.958q-0.24908 0-0.39377 0.1664-0.14366 0.16536-0.14366 0.45372 0 0.29662 0.13849 0.45889 0.13953 0.16123 0.39688 0.16123 0.15813 0 0.3607-0.05684v0.154q-0.1571 0.05891-0.38757 0.05891-0.33383 0-0.51573-0.20257-0.18087-0.20257-0.18087-0.57568 0-0.23358 0.08682-0.40928 0.08785-0.1757 0.25218-0.27078 0.16536-0.09508 0.38861-0.09508 0.23771 0 0.41548 0.08682l-0.07441 0.1509q-0.17157-0.08062-0.34313-0.08062z"/>
<path d="m14.407 84.201h0.18397l0.24805 0.64596q0.08165 0.22118 0.10129 0.31936h0.0083q0.01344-0.05271 0.05581-0.17983 0.04341-0.12816 0.28112-0.78548h0.18397l-0.48679 1.2898q-0.07235 0.1912-0.1695 0.27078-0.09612 0.08061-0.23668 0.08061-0.07855 0-0.15503-0.01757v-0.13746q0.05684 0.0124 0.12712 0.0124 0.17673 0 0.25218-0.19844l0.06305-0.16123z"/>
<path d="m15.825 85.333h-0.17157v-1.6082h0.17157z"/>
<path d="m16.363 85.333h-0.17157v-1.1327h0.17157zm-0.18604-1.4397q0-0.05891 0.02894-0.08578 0.02894-0.02791 0.07235-0.02791 0.04134 0 0.07131 0.02791 0.02997 0.0279 0.02997 0.08578t-0.02997 0.08682q-0.02997 0.02791-0.07131 0.02791-0.04341 0-0.07235-0.02791-0.02894-0.02894-0.02894-0.08682z"/>
<path d="m17.504 85.333v-0.73277q0-0.13849-0.06305-0.20671-0.06304-0.06821-0.1974-0.06821-0.17777 0-0.26045 0.09612-0.08268 0.09612-0.08268 0.31729v0.59428h-0.17157v-1.1327h0.13953l0.02791 0.15503h0.0083q0.05271-0.08372 0.1478-0.12919 0.09508-0.04651 0.21187-0.04651 0.20464 0 0.30799 0.09922 0.10335 0.09819 0.10335 0.31523v0.73897z"/>
<path d="m18.798 85.181h-0.0093q-0.11886 0.1726-0.35553 0.1726-0.22221 0-0.34623-0.15193-0.12299-0.15193-0.12299-0.43202t0.12402-0.43512q0.12402-0.15503 0.3452-0.15503 0.23048 0 0.35347 0.16743h0.01344l-0.0072-0.08165-0.0041-0.07958v-0.46095h0.17157v1.6082h-0.13953zm-0.34313 0.02894q0.1757 0 0.25425-0.09508 0.07958-0.09612 0.07958-0.30902v-0.03617q0-0.24081-0.08061-0.34313-0.07958-0.10335-0.25528-0.10335-0.1509 0-0.23151 0.11782-0.07958 0.11679-0.07958 0.33073 0 0.21704 0.07958 0.32763 0.07958 0.11059 0.23358 0.11059z"/>
<path d="m19.803 85.354q-0.25115 0-0.39688-0.15296-0.14469-0.15296-0.14469-0.42478 0-0.27388 0.13436-0.43512 0.13539-0.16123 0.36277-0.16123 0.21291 0 0.33693 0.14056 0.12402 0.13953 0.12402 0.36897v0.10852h-0.78031q0.0052 0.19947 0.10025 0.30282 0.09612 0.10335 0.26975 0.10335 0.18294 0 0.36174-0.07648v0.15296q-0.09095 0.03927-0.1726 0.05581-0.08062 0.01757-0.19534 0.01757zm-0.04651-1.0304q-0.13643 0-0.21807 0.08888-0.08062 0.08888-0.09509 0.24598h0.59221q0-0.16226-0.07235-0.24805-0.07235-0.08682-0.20671-0.08682z"/>
<path d="m21.028 84.18q0.07545 0 0.13539 0.0124l-0.02377 0.15916q-0.07028-0.0155-0.12402-0.0155-0.13746 0-0.23564 0.11162-0.09715 0.11162-0.09715 0.27802v0.60772h-0.17157v-1.1327h0.14159l0.01964 0.20981h0.0083q0.06305-0.11059 0.15193-0.17053 0.08888-0.05994 0.19534-0.05994z"/>
</g>
<path d="m50.271-8.3746 34.925 19.05" fill="none" marker-end="url(#d)" stroke="#f00000" stroke-width=".52917"/>
<path d="m50.271 12.792 33.867 5.2917" fill="none" marker-end="url(#e)" stroke="#2b7914" stroke-width=".52917"/>
<path d="m50.271 33.959 35.983-10.583" fill="none" marker-end="url(#c)" stroke="#142c78" stroke-width=".52917"/>
<path d="m50.271 33.959 33.867 30.692" fill="none" marker-end="url(#b)" stroke="#142c78" stroke-width=".52917"/>
<path d="m50.271 33.959 33.867 6.35" fill="none" marker-end="url(#a)" stroke="#142c78" stroke-width=".52917"/>
</g>
</svg>
